<?xml version="1.0" standalone="no"?>
<!DOCTYPE svg PUBLIC "-//W3C//DTD SVG 20010904//EN"
 "http://www.w3.org/TR/2001/REC-SVG-20010904/DTD/svg10.dtd">
<svg version="1.0" xmlns="http://www.w3.org/2000/svg"
 width="200.000000pt" height="200.000000pt" viewBox="0 0 200.000000 200.000000"
 preserveAspectRatio="xMidYMid meet">

<g transform="translate(0.000000,200.000000) scale(0.100000,-0.100000)"
fill="#000000" stroke="none">
<path d="M654 1758 c-12 -5 -162 -168 -335 -360 -256 -286 -315 -357 -317
-383 -4 -39 -17 -23 351 -432 293 -326 315 -345 369 -324 37 14 68 58 68 97 0
39 7 30 -258 327 l-203 227 764 0 764 0 34 23 c61 41 64 108 6 151 -28 21 -34
21 -798 24 l-770 2 203 227 c112 125 215 243 231 261 48 61 30 136 -40 163
-30 11 -42 11 -69 -3z"/>
</g>
</svg>
